<svg xmlns="http://www.w3.org/2000/svg" viewBox="0 0 212.901 63.5712" role="img" aria-label="Della" xmlns:c2pa="http://c2pa.org/manifest"><metadata><c2pa:manifest>AAAWgmp1bWIAAAAeanVtZGMycGEAEQAQgAAAqgA4m3EDYzJwYQAAABZcanVtYgAAAEdqdW1kYzJtYQARABCAAACqADibcQN1cm46YzJwYToxYWJkMWNhNS1kYjk4LTQ4NjUtYjQ2ZS1jMGY3NjUzMjJiZTQAAAADl2p1bWIAAAApanVtZGMyYXMAEQAQgAAAqgA4m3EDYzJwYS5hc3NlcnRpb25zAAAAALxqdW1iAAAARGp1bWRjYm9yABEAEIAAAKoAOJtxE2MycGEuaW5ncmVkaWVudC52MwAAAAAYYzJzaIim320VarravEHdbJqWQiwAAABwY2JvcqNpZGM6Zm9ybWF0bWltYWdlL3N2Zyt4bWxqaW5zdGFuY2VJRHgseG1wOmlpZDphNmRhZDE0My1lNjk2LTRlYzEtODE1ZS1hNTQzYWI3NTM2YzFscmVsYXRpb25zaGlwaHBhcmVudE9mAAAB4mp1bWIAAABBanVtZGNib3IAEQAQgAAAqgA4m3ETYzJwYS5hY3Rpb25zLnYyAAAAABhjMnNou24jyGoEDO1OpKIrBLsndgAAAZljYm9yomdhY3Rpb25zgqJmYWN0aW9ua2MycGEub3BlbmVkanBhcmFtZXRlcnOha2luZ3JlZGllbnRzgaJjdXJseC1zZWxmI2p1bWJmPWMycGEuYXNzZXJ0aW9ucy9jMnBhLmluZ3JlZGllbnQudjNkaGFzaFggGKZnVwYOgavcuamt/lsODEc71NO2MlRRJ7iwXdDOjRekZmFjdGlvbngdY29tLmFudGhyb3BpYy5jbGF1ZGUucHJvdmlkZWRqcGFyYW1ldGVyc6F4H2NvbS5hbnRocm9waWMub3JpZ2luLWNvbmZpZGVuY2VndW5rbm93bmtkZXNjcmlwdGlvbnhmQ2xhdWRlIHByb3ZpZGVkIHRoaXMgZmlsZSBhdCB0aGUgcmVxdWVzdCBvZiBhIHVzZXIgYW5kIG1heSBoYXZlIGNyZWF0ZWQgb3IgbW9kaWZpZWQgdGhlIGZpbGUgY29udGVudHMubXNvZnR3YXJlQWdlbnShZG5hbWVmQ2xhdWRlcmFsbEFjdGlvbnNJbmNsdWRlZPUAAADIanVtYgAAAEBqdW1kY2JvcgARABCAAACqADibcRNjMnBhLmhhc2guZGF0YQAAAAAYYzJzaLOZhWf69aGvC4sa2f34UPgAAACAY2JvcqVjYWxnZnNoYTI1NmNwYWRNAAAAAAAAAAAAAAAAAGRoYXNoWCBe2J6dNMUpE5DE5HUAhNlAwOVy2951wTBaADjjhwu1fGRuYW1lbmp1bWJmIG1hbmlmZXN0amV4Y2x1c2lvbnOBomVzdGFydBijZmxlbmd0aBkeBAAAAj5qdW1iAAAAJ2p1bWRjMmNsABEAEIAAAKoAOJtxA2MycGEuY2xhaW0udjIAAAACD2Nib3KlY2FsZ2ZzaGEyNTZpc2lnbmF0dXJleE1zZWxmI2p1bWJmPS9jMnBhL3VybjpjMnBhOjFhYmQxY2E1LWRiOTgtNDg2NS1iNDZlLWMwZjc2NTMyMmJlNC9jMnBhLnNpZ25hdHVyZWppbnN0YW5jZUlEeCx4bXA6aWlkOjE1NjE2Y2ViLTI3YTMtNDgzYy1iNDVjLTQ3ZjJkYzQ0Y2EyMnJjcmVhdGVkX2Fzc2VydGlvbnODomN1cmx4LXNlbGYjanVtYmY9YzJwYS5hc3NlcnRpb25zL2MycGEuaW5ncmVkaWVudC52M2RoYXNoWCAYpmdXBg6Bq9y5qa3+Ww4MRzvU07YyVFEnuLBd0M6NF6JjdXJseCpzZWxmI2p1bWJmPWMycGEuYXNzZXJ0aW9ucy9jMnBhLmFjdGlvbnMudjJkaGFzaFgg9OD6MSxLTt9/Icu/406xiNYyH7k2ss4tl8XuVgPHyuaiY3VybHgpc2VsZiNqdW1iZj1jMnBhLmFzc2VydGlvbnMvYzJwYS5oYXNoLmRhdGFkaGFzaFgg7ScQ0zGdwz5xgm+fuoOdp8dLjGl5Pa0eai+IbyV25p90Y2xhaW1fZ2VuZXJhdG9yX2luZm+jZG5hbWVvQW50aHJvcGljIEZpbGVzZ3ZlcnNpb25lMS4wLjBrc3BlY1ZlcnNpb25lMi40LjAAABA4anVtYgAAAChqdW1kYzJjcwARABCAAACqADibcQNjMnBhLnNpZ25hdHVyZQAAABAIY2JvctKEWQISogEmGCFZAgowggIGMIIBjaADAgECAhRA5aAK7sI50L64g/oGQgU9Z1UTADAKBggqhkjOPQQDAzBJMRcwFQYDVQQKEw5BbnRocm9waWMsIFBCQzEuMCwGA1UEAxMlQW50aHJvcGljIENvbnRlbnQgQ3JlZGVudGlhbHMgUm9vdCBDQTAeFw0yNjA4MDcxODQzNTZaFw0yODA4MDYxOTQzNTZaMEQxFzAVBgNVBAoTDkFudGhyb3BpYywgUEJDMSkwJwYDVQQDEyBBbnRocm9waWMgQ2xhdWRlIENvbnRlbnQgU2lnbmluZzBZMBMGByqGSM49AgEGCCqGSM49AwEHA0IABJh6CmvLUBgFFNU0vUKlOVtE6djd17L5SuwX0LemFisBM3dkd/3cyjxFA3Qo5S46fX0/ihY0VZ7mfb9KF703t5OjWDBWMA4GA1UdDwEB/wQEAwIHgDAVBgNVHSUEDjAMBgorBgEEAYPoXgIBMAwGA1UdEwEB/wQCMAAwHwYDVR0jBBgwFoAUzlHiBIFOZFsj+OPEz5o+nMHXXMIwCgYIKoZIzj0EAwMDZwAwZAIwMXMdFJ4BetLLVY7ORuE9noqbbAZOZn/aArXyTwFAZfKrPzxF2vPoJNf1+UCdg1XGAjBwX1zd9WGqYkqmL5SFqw1QySjr1zJfpJM9+1rdDwSPLMOPOjKuiXjoU/pUUeG9RwmhY3BhZFkNngAAAAAAAAAAAAAAAAAAAAAAAAAAAAAAAAAAAAAAAAAAAAAAAAAAAAAAAAAAAAAAAAAAAAAAAAAAAAAAAAAAAAAAAAAAAAAAAAAAAAAAAAAAAAAAAAAAAAAAAAAAAAAAAAAAAAAAAAAAAAAAAAAAAAAAAAAAAAAAAAAAAAAAAAAAAAAAAAAAAAAAAAAAAAAAAAAAAAAAAAAAAAAAAAAAAAAAAAAAAAAAAAAAAAAAAAAAAAAAAAAAAAAAAAAAAAAAAAAAAAAAAAAAAAAAAAAAAAAAAAAAAAAAAAAAAAAAAAAAAAAAAAAAAAAAAAAAAAAAAAAAAAAAAAAAAAAAAAAAAAAAAAAAAAAAAAAAAAAAAAAAAAAAAAAAAAAAAAAAAAAAAAAAAAAAAAAAAAAAAAAAAAAAAAAAAAAAAAAAAAAAAAAAAAAAAAAAAAAAAAAAAAAAAAAAAAAAAAAAAAAAAAAAAAAAAAAAAAAAAAAAAAAAAAAAAAAAAAAAAAAAAAAAAAAAAAAAAAAAAAAAAAAAAAAAAAAAAAAAAAAAAAAAAAAAAAAAAAAAAAAAAAAAAAAAAAAAAAAAAAAAAAAAAAAAAAAAAAAAAAAAAAAAAAAAAAAAAAAAAAAAAAAAAAAAAAAAAAAAAAAAAAAAAAAAAAAAAAAAAAAAAAAAAAAAAAAAAAAAAAAAAAAAAAAAAAAAAAAAAAAAAAAAAAAAAAAAAAAAAAAAAAAAAAAAAAAAAAAAAAAAAAAAAAAAAAAAAAAAAAAAAAAAAAAAAAAAAAAAAAAAAAAAAAAAAAAAAAAAAAAAAAAAAAAAAAAAAAAAAAAAAAAAAAAAAAAAAAAAAAAAAAAAAAAAAAAAAAAAAAAAAAAAAAAAAAAAAAAAAAAAAAAAAAAAAAAAAAAAAAAAAAAAAAAAAAAAAAAAAAAAAAAAAAAAAAAAAAAAAAAAAAAAAAAAAAAAAAAAAAAAAAAAAAAAAAAAAAAAAAAAAAAAAAAAAAAAAAAAAAAAAAAAAAAAAAAAAAAAAAAAAAAAAAAAAAAAAAAAAAAAAAAAAAAAAAAAAAAAAAAAAAAAAAAAAAAAAAAAAAAAAAAAAAAAAAAAAAAAAAAAAAAAAAAAAAAAAAAAAAAAAAAAAAAAAAAAAAAAAAAAAAAAAAAAAAAAAAAAAAAAAAAAAAAAAAAAAAAAAAAAAAAAAAAAAAAAAAAAAAAAAAAAAAAAAAAAAAAAAAAAAAAAAAAAAAAAAAAAAAAAAAAAAAAAAAAAAAAAAAAAAAAAAAAAAAAAAAAAAAAAAAAAAAAAAAAAAAAAAAAAAAAAAAAAAAAAAAAAAAAAAAAAAAAAAAAAAAAAAAAAAAAAAAAAAAAAAAAAAAAAAAAAAAAAAAAAAAAAAAAAAAAAAAAAAAAAAAAAAAAAAAAAAAAAAAAAAAAAAAAAAAAAAAAAAAAAAAAAAAAAAAAAAAAAAAAAAAAAAAAAAAAAAAAAAAAAAAAAAAAAAAAAAAAAAAAAAAAAAAAAAAAAAAAAAAAAAAAAAAAAAAAAAAAAAAAAAAAAAAAAAAAAAAAAAAAAAAAAAAAAAAAAAAAAAAAAAAAAAAAAAAAAAAAAAAAAAAAAAAAAAAAAAAAAAAAAAAAAAAAAAAAAAAAAAAAAAAAAAAAAAAAAAAAAAAAAAAAAAAAAAAAAAAAAAAAAAAAAAAAAAAAAAAAAAAAAAAAAAAAAAAAAAAAAAAAAAAAAAAAAAAAAAAAAAAAAAAAAAAAAAAAAAAAAAAAAAAAAAAAAAAAAAAAAAAAAAAAAAAAAAAAAAAAAAAAAAAAAAAAAAAAAAAAAAAAAAAAAAAAAAAAAAAAAAAAAAAAAAAAAAAAAAAAAAAAAAAAAAAAAAAAAAAAAAAAAAAAAAAAAAAAAAAAAAAAAAAAAAAAAAAAAAAAAAAAAAAAAAAAAAAAAAAAAAAAAAAAAAAAAAAAAAAAAAAAAAAAAAAAAAAAAAAAAAAAAAAAAAAAAAAAAAAAAAAAAAAAAAAAAAAAAAAAAAAAAAAAAAAAAAAAAAAAAAAAAAAAAAAAAAAAAAAAAAAAAAAAAAAAAAAAAAAAAAAAAAAAAAAAAAAAAAAAAAAAAAAAAAAAAAAAAAAAAAAAAAAAAAAAAAAAAAAAAAAAAAAAAAAAAAAAAAAAAAAAAAAAAAAAAAAAAAAAAAAAAAAAAAAAAAAAAAAAAAAAAAAAAAAAAAAAAAAAAAAAAAAAAAAAAAAAAAAAAAAAAAAAAAAAAAAAAAAAAAAAAAAAAAAAAAAAAAAAAAAAAAAAAAAAAAAAAAAAAAAAAAAAAAAAAAAAAAAAAAAAAAAAAAAAAAAAAAAAAAAAAAAAAAAAAAAAAAAAAAAAAAAAAAAAAAAAAAAAAAAAAAAAAAAAAAAAAAAAAAAAAAAAAAAAAAAAAAAAAAAAAAAAAAAAAAAAAAAAAAAAAAAAAAAAAAAAAAAAAAAAAAAAAAAAAAAAAAAAAAAAAAAAAAAAAAAAAAAAAAAAAAAAAAAAAAAAAAAAAAAAAAAAAAAAAAAAAAAAAAAAAAAAAAAAAAAAAAAAAAAAAAAAAAAAAAAAAAAAAAAAAAAAAAAAAAAAAAAAAAAAAAAAAAAAAAAAAAAAAAAAAAAAAAAAAAAAAAAAAAAAAAAAAAAAAAAAAAAAAAAAAAAAAAAAAAAAAAAAAAAAAAAAAAAAAAAAAAAAAAAAAAAAAAAAAAAAAAAAAAAAAAAAAAAAAAAAAAAAAAAAAAAAAAAAAAAAAAAAAAAAAAAAAAAAAAAAAAAAAAAAAAAAAAAAAAAAAAAAAAAAAAAAAAAAAAAAAAAAAAAAAAAAAAAAAAAAAAAAAAAAAAAAAAAAAAAAAAAAAAAAAAAAAAAAAAAAAAAAAAAAAAAAAAAAAAAAAAAAAAAAAAAAAAAAAAAAAAAAAAAAAAAAAAAAAAAAAAAAAAAAAAAAAAAAAAAAAAAAAAAAAAAAAAAAAAAAAAAAAAAAAAAAAAAAAAAAAAAAAAAAAAAAAAAAAAAAAAAAAAAAAAAAAAAAAAAAAAAAAAAAAAAAAAAAAAAAAAAAAAAAAAAAAAAAAAAAAAAAAAAAAAAAAAAAAAAAAAAAAAAAAAAAAAAAAAAAAAAAAAAAAAAAAAAAAAAAAAAAAAAAAAAAAAAAAAAAAAAAAAAAAAAAAAAAAAAAAAAAAAAAAAAAAAAAAAAAAAAAAAAAAAAAAAAAAAAAAAAAAAAAAAAAAAAAAAAAAAAAAAAAAAAAAAAAAAAAAAAAAAAAAAAAAAAAAAAAAAAAAAAAAAAAAAAAAAAAAAAAAAAAAAAAAAAAAAAAAAAAAAAAAAAAAAAAAAAAAAAAAAAAAAAAAAAAAAAAAAAAAAAAAAAAAAAAAAAAAAAAAAAAAAAAAAAAAAAAAAAAAAAAAAAAAAAAAAAAAAAAAAAAAAAAAAAAAAAAAAAAAAAAAAAAAAAAAAAAAAAAAAAAAAAAAAAAAAAAAAAAAAAAAAAAAAAAAAAAAAAAAAAAAAAAAAAAAAAAAAAAAAAAAAAAAAAAAAAAAAAAAAAAAAAAAAAAAAAAAAAAAAAAAAAAAAAAAAAAAAAAAAAAAAAAAAAAAAAAAAAAAAAAAAAAAAAAAAAAAAAAAAAAAAAAAAAAAAAAAAAAAAAAAAAAAAAAAAAAAAAAAAAAAAAAAAAAAAAAAAAAAAAAAAAAAAAAAAAAAAAAAAAAAAAAAAAAAAAAAAAAAAAAAAAAAAAAAAAAAAAAAAAAAAAAAAAAAAAAAAAAAAAAAAAAAAAAAAAAAAAAAAAAAAAAAAAAAAAAAAAAAAAAAAAAAAAAAAAAAAAAAAAAAAAAAAAAAAAAAAAAAAAAAAAAAAAAAAAAAAAAAAAAAAAAAAAAAAAAAAAAAAAAAAAAAAAAAAAAAAAAAAAAAAAAAAAAAAAAAAAAAAAAAAAAAAAAAAAAAAAAAAAAAAAAAAAAAAAAAAAAAAAAAAAAAAAAAAAAAAAAAAAAAAAAAAAAAAAAAAAAAAAAAAAAAAAAAAAAAAAAAAAAAAAAAAAAAAAAAAAAAAAAAAAAAAAAAAAAAAAAAAAAAAAAAAAAAAAAAAAAAAAAAAAAAAAAAAAAAAAAAAAAAAAAAAAAAAAAAAAAAAAAAAAAAAAAAAAAAAAAAAAAAAAAAAAAAAAAAAAAAAAAAAAAAAAAAAAAAAAAAAAAAAAAAAAAAAAAAAAAAAAAAAAAAAAAAAAAAAAAAAAAAAAAAAAAAAAAAAAAAAAAAAAAAAAAAAAAAAAAAAAAAAAAAAAAAAAAAAAAAAAAAAAAAAAAAAAAAAAAAAAAAAAAAAAAAAAAAAAAAAAAAAAAAAAAAAAAAAAAAAAAAAAAAAAAAAAAAAAAAAAAAAAAAAAAAAAAAAAAAAAAAAAAAAAAAAAAAAAAAAAAAAAAAAAAAAAAAAAAAAAAAAAAAAAAAAAAAAAAAAAAAAAAAAAAAAAAAAAAAAAAAAAAAAAAAAAAAAAAAAAAAAAAAAAAAAAAAAAAAAAAAAAAAAAAAAAAAAAAAAAAAAAAAAAAAAAAAAAAAAAAAAAAAAAAAAAAAAAAAAAAAAAAAAAAAAAAAAAAAAAAAAAAAAAAAAAAAAAAAAAAAAAAAAAAAAAAAAAAAAAAAAAAAAAAAAAAAAAAAAAAAAAAAAAAAAAAAAPZYQF0/WCvQZDtoqHNQEXUVtt6CMlX99MVuE6S63MLDgoGFWkYLR59uZWK5Bm5aiE6RlMD0XODWapCdwKB/ZnT6ybU=</c2pa:manifest></metadata>
<g>
<path d="M1.95521 0.425549C3.27675 0.0549457 5.30795 1.69155 6.84974 1.79274C22.6053 2.82665 26.5033 -2.60908 35.8175 5.00856C47.6743 14.706 47.7644 48.0191 36.7101 58.1619C28.5769 65.6254 19.1773 57.6775 9.40442 61.1541C7.46663 61.8434 1.6297 64.2303 0.652472 62.2615C-0.086193 60.7737 0.652295 56.6031 3.01673 54.3279C3.01672 38.8158 1.98169 22.5675 1.95521 6.96364C-0.602528 5.00861 -0.364536 1.07684 1.95521 0.425549ZM21.7062 14.4099C18.675 14.4099 16.2179 14.88 16.2179 17.9617V45.1922C16.2179 48.1426 18.4704 48.5299 21.3224 48.7302C21.4136 48.7366 21.5054 48.7411 21.5978 48.7429C21.6338 48.7436 21.67 48.7439 21.7062 48.7439C24.7374 48.7439 26.5214 46.5222 27.1945 43.1638C27.9785 39.2515 28.5665 37.3039 28.5665 31.7791C28.5665 26.0568 28.1745 23.7004 27.1945 19.99C26.4104 17.0218 24.942 14.624 22.09 14.4236C21.9988 14.4172 21.9069 14.4127 21.8146 14.4109C21.7786 14.4102 21.7423 14.4099 21.7062 14.4099Z" fill="#313834"/>
<path d="M78.8422 31.2794C78.8685 33.9665 81.1773 38.9802 77.0336 39.1192C73.9588 39.2221 68.3769 33.7615 65.2184 38.9364C64.1627 40.666 62.9689 52.998 67.2017 52.998C73.1791 52.998 82.135 43.9396 86.184 47.0542C87.7267 48.2407 86.1051 52.315 85.9313 54.06C85.7576 55.805 89.2128 62.7131 84.8546 62.7131C84.8546 62.7131 53.3862 62.7439 49.4236 62.7439C46.0373 62.7439 46.8839 58.7897 48.2832 55.7561C49.6626 40.4215 47.2064 23.172 48.2832 7.63408C46.8839 5.01025 45.2899 1.71437 48.2753 0.491827C49.9864 -0.208242 56.5099 1.05034 58.8529 1.13013C64.7735 1.33088 73.9927 1.71695 79.6606 1.12498C81.0927 0.975698 81.9219 -0.131029 83.3119 0.476384C85.4574 1.41067 84.415 5.69087 84.6308 7.64437C84.9099 10.1615 86.9764 14.0557 84.4308 15.4738C80.701 17.5533 76.7257 10.0974 66.2266 12.6635C62.9689 13.4597 64.093 25.4498 65.7202 26.522C69.8074 29.215 76.5436 21.7646 78.8422 24.0111C80.5107 25.6417 78.8159 28.5924 78.8422 31.2794Z" fill="#313834"/>
<path d="M92.0197 62.5404C90.5145 61.103 92.4252 58.9379 93.6497 57.698C93.8903 56.4045 93.779 54.3052 93.8646 52.945C94.2945 40.5459 94.4811 22.2029 93.6497 9.7548C93.5641 8.4871 93.6497 7.27498 93.2522 5.62177C92.575 4.58851 91.2631 3.78667 91.5411 2.26183C92.1801 -1.26097 97.0619 0.952997 99.5884 1.12271C100.906 1.21014 102.671 1.18699 103.994 1.09699C105.738 0.97871 110.395 -0.654123 111.478 1.09699C112.542 2.81725 109.177 4.38355 109.34 6.44837V47.3654C109.34 60.3797 119.03 45.6515 122.811 46.7109C125.714 47.5235 123.027 52.5324 122.811 54.3915C122.594 56.2506 126.535 62.8541 122.252 62.8541C119.657 62.8541 115.678 62.6561 113.697 62.6175C109.606 62.5378 105.441 62.5481 101.35 62.6201C99.3826 62.6535 93.4179 63.8646 92.025 62.5378L92.0197 62.5404Z" fill="#313834"/>
<path d="M129.157 62.5404C127.651 61.103 129.562 58.9379 130.787 57.698C131.027 56.4045 130.916 54.3052 131.002 52.945C131.431 40.5459 131.618 22.2029 130.787 9.7548C130.701 8.4871 130.787 7.27498 130.389 5.62177C129.712 4.58851 128.4 3.78667 128.678 2.26183C129.317 -1.26097 134.199 0.952997 136.725 1.12271C138.043 1.21014 139.808 1.18699 141.131 1.09699C142.874 0.97871 147.532 -0.654123 148.615 1.09699C149.679 2.81725 146.314 4.38355 146.477 6.44837V47.3654C146.477 60.3797 156.167 45.6515 159.948 46.7109C162.851 47.5235 160.164 52.5324 159.948 54.3915C159.731 56.2506 163.672 62.8541 159.389 62.8541C156.794 62.8541 152.815 62.6561 150.834 62.6175C146.743 62.5378 142.578 62.5481 138.487 62.6201C136.519 62.6535 130.555 63.8646 129.162 62.5378L129.157 62.5404Z" fill="#313834"/>
<path d="M25.2107 49.5701C25.1215 49.5735 25.0317 49.5694 24.9431 49.5574C25.0316 49.5641 25.1211 49.5682 25.2107 49.5701Z" fill="#FFFCF5"/>
<g>
<path d="M194.684 0.486796C200.609 -0.818393 200.855 0.398382 202.173 5.38719C204.53 14.3037 207.968 39.4843 211.748 56.48C212.228 58.6433 214.083 61.8926 211.748 62.9595C209.412 64.026 207.502 62.2037 204.317 62.2036C200.283 62.2036 197.712 64.1712 196.249 62.9595C194.338 61.3775 196.621 58.5148 196.885 56.48C197.192 54.1162 196.991 50.8735 193.935 50.4136C192.239 50.1593 184.433 50.1872 183.189 50.8911C181.884 51.6285 181.496 55.0566 181.578 56.48C181.678 58.258 183.619 61.9883 181.578 62.9595C178.658 64.348 176.78 62.1698 173.53 62.2036C171.53 62.2244 167.249 64.6812 165.673 62.9595C164.187 60.7582 166.159 58.5455 166.735 56.48C170.217 38.9556 171.52 22.0827 176.061 5.38719C177.394 0.487648 177.883 -0.426594 182.944 0.486796C188.004 1.40014 190.433 1.42327 194.684 0.486796ZM190.274 14.5503C190.075 13.0969 188.01 13.0839 187.794 14.5346C186.779 21.3323 183.547 28.7512 183.547 35.6255C183.548 38.0016 186.561 39.9282 188.902 39.9282C191.243 39.928 194.478 38.0015 194.478 35.6255C194.478 28.7319 191.21 21.3787 190.274 14.5503Z" fill="#313834"/>
</g>
</g>
</svg>
