<svg preserveAspectRatio="none" overflow="visible" style="display: block;" width="438.152" height="655.799" viewBox="0 0 438.152 655.799" fill="none" xmlns="http://www.w3.org/2000/svg">
<g id="Group 33">
<path id="Vector" d="M259.756 325.098C309.509 257.035 414.323 191.118 431.815 218.806C445.979 241.209 404.147 265.512 372.188 324.768C352.139 361.978 304.806 503.555 181.262 509.004C110.386 512.142 55.4898 457.372 43.5534 403.565C31.342 348.465 28.3716 258.851 20.8358 224.888C8.21183 167.999 -8.59252 131.724 16.4353 123.55C36.6226 116.945 52.1344 152.394 60.5229 190.045C66.271 215.751 79.4175 285.906 79.4175 285.906C79.4175 285.906 80.4351 176.118 78.1798 142.513C74.8244 92.9725 76.5571 28.5972 102.328 27.2761C130.051 25.8725 132.911 84.4679 132.911 119.009C132.911 150.852 135.909 261.824 135.909 261.824C135.909 261.824 155.766 120.11 162.642 87.633C169.518 55.1563 185.965 1.1572 214.568 3.57918C245.839 6.24888 237.478 63.9362 232.885 103.294C228.292 142.651 214.43 247.347 214.43 247.347C214.43 247.347 259.811 146.366 273.975 112.101C291.632 69.3305 327.633 10.7075 349.333 36.5512C373.399 65.2298 308.326 198.687 295.702 281.833" stroke="#FFFDF4" stroke-width="7" stroke-linecap="round" stroke-linejoin="round"/>
<path id="Vector_2" d="M136.628 323.229C137.457 317.332 139.01 312.254 140.747 308.83C141.624 307.102 142.457 305.974 143.119 305.355C143.249 305.234 143.36 305.146 143.447 305.081C143.514 305.168 143.596 305.282 143.689 305.435C144.155 306.212 144.646 307.526 145.012 309.429C145.737 313.199 145.83 318.509 145.002 324.406C144.173 330.304 142.62 335.381 140.883 338.805C140.007 340.533 139.173 341.661 138.51 342.279C138.379 342.402 138.269 342.49 138.181 342.555C138.114 342.468 138.033 342.354 137.941 342.2C137.474 341.423 136.985 340.109 136.619 338.206C135.893 334.436 135.799 329.127 136.628 323.229Z" fill="#FFFDF4" stroke="#FFFDF4" stroke-width="7"/>
<path id="Vector_3" d="M179.496 326.437C180.324 320.546 181.893 315.479 183.652 312.065C184.54 310.343 185.385 309.219 186.06 308.602C186.24 308.438 186.382 308.332 186.485 308.264C186.566 308.358 186.674 308.498 186.802 308.706C187.281 309.485 187.784 310.799 188.163 312.699C188.913 316.466 189.024 321.769 188.196 327.66C187.368 333.551 185.8 338.619 184.04 342.033C183.152 343.755 182.306 344.879 181.631 345.496C181.451 345.661 181.309 345.767 181.205 345.835C181.124 345.741 181.018 345.6 180.89 345.392C180.411 344.613 179.908 343.299 179.53 341.399C178.779 337.633 178.668 332.329 179.496 326.437Z" fill="#FFFDF4" stroke="#FFFDF4" stroke-width="7"/>
<path id="Vector_4" d="M91.2196 342.795C102.243 439.888 221.636 426.693 236.041 355.936" stroke="#FFFDF4" stroke-width="7" stroke-linecap="round" stroke-linejoin="round"/>
<path id="Vector_5" d="M94.0788 480.168C90.4721 510.46 88.2971 607.862 81.0839 616.95C73.8706 626.065 26.709 649.334 42.1817 650.215C71.3377 651.868 133.559 656.136 136.037 643.937C141.35 617.776 156.3 526.763 159.907 507.706" stroke="#FFFDF4" stroke-width="7" stroke-linecap="round" stroke-linejoin="round"/>
<path id="Vector_6" d="M272.877 476.031C276.484 506.357 278.687 607.784 285.9 616.91C293.113 626.035 340.275 649.331 324.802 650.213C295.646 651.867 233.425 656.141 230.947 643.927C225.633 617.737 210.684 526.621 207.077 507.543" stroke="#FFFDF4" stroke-width="7" stroke-linecap="round" stroke-linejoin="round"/>
</g>
</svg>
